<svg xmlns="http://www.w3.org/2000/svg" width="760" height="360">
  <rect x="10" y="10" width="740" height="340" fill="#ffffff" stroke="#111"/>
  <g font-family="sans-serif" font-size="14">
    <rect x="40" y="60" width="170" height="220" fill="#e6f0ff" stroke="#1b5e20"/>
    <text x="125" y="85" text-anchor="middle" font-weight="bold">Domain</text>
    <text x="125" y="105" text-anchor="middle">Entities / VOs</text>
    <text x="125" y="125" text-anchor="middle">Enums / Events</text>
    <text x="125" y="145" text-anchor="middle">Ports</text>

    <rect x="230" y="60" width="170" height="220" fill="#fff3e0" stroke="#e65100"/>
    <text x="315" y="85" text-anchor="middle" font-weight="bold">Application</text>
    <text x="315" y="105" text-anchor="middle">Use Cases</text>
    <text x="315" y="125" text-anchor="middle">DTOs</text>

    <rect x="420" y="60" width="140" height="220" fill="#e8f5e9" stroke="#2e7d32"/>
    <text x="490" y="85" text-anchor="middle" font-weight="bold">Infrastructure</text>
    <text x="490" y="105" text-anchor="middle">Repos (mem)</text>
    <text x="490" y="125" text-anchor="middle">Email fake</text>
    <text x="490" y="145" text-anchor="middle">Clock/ID</text>
    <text x="490" y="165" text-anchor="middle">Events</text>

    <rect x="580" y="60" width="140" height="220" fill="#f3e5f5" stroke="#6a1b9a"/>
    <text x="650" y="85" text-anchor="middle" font-weight="bold">Interface</text>
    <text x="650" y="105" text-anchor="middle">CLI</text>

    <line x1="400" y1="90" x2="210" y2="90" stroke="#333" marker-end="url(#a)"/>
    <line x1="570" y1="90" x2="400" y2="90" stroke="#333" marker-end="url(#a)"/>
    <line x1="710" y1="90" x2="570" y2="90" stroke="#333" marker-end="url(#a)"/>
    <text x="305" y="50" text-anchor="middle">Dependency direction</text>
  </g>
  <defs>
    <marker id="a" markerWidth="10" markerHeight="7" refX="10" refY="3.5" orient="auto">
      <polygon points="0 0, 10 3.5, 0 7" fill="#333"/>
    </marker>
  </defs>
</svg>
