<svg xmlns="http://www.w3.org/2000/svg" xmlns:xlink="http://www.w3.org/1999/xlink" contentStyleType="text/css" data-diagram-type="CLASS" height="763px" preserveAspectRatio="none" style="width:713px;height:763px;background:#FFFFFF;" version="1.1" viewBox="0 0 713 763" width="713px" zoomAndPan="magnify"><defs/><g><!--class Cliente--><g class="entity" data-entity="Cliente" data-source-line="3" data-uid="ent0002" id="entity_Cliente"><rect fill="#F1F1F1" height="129.4844" rx="2.5" ry="2.5" style="stroke:#181818;stroke-width:0.5;" width="173.8203" x="219.84" y="7"/><ellipse cx="277.9284" cy="23" fill="#ADD1B2" rx="11" ry="11" style="stroke:#181818;stroke-width:1;"/><path d="M280.8971,28.6406 Q280.319,28.9375 279.6784,29.0781 Q279.0378,29.2344 278.3346,29.2344 Q275.8346,29.2344 274.5065,27.5938 Q273.194,25.9375 273.194,22.8125 Q273.194,19.6875 274.5065,18.0313 Q275.8346,16.375 278.3346,16.375 Q279.0378,16.375 279.6784,16.5313 Q280.3346,16.6875 280.8971,16.9844 L280.8971,19.7031 Q280.2721,19.125 279.6784,18.8594 Q279.0846,18.5781 278.4596,18.5781 Q277.1159,18.5781 276.4284,19.6563 Q275.7409,20.7188 275.7409,22.8125 Q275.7409,24.9063 276.4284,25.9844 Q277.1159,27.0469 278.4596,27.0469 Q279.0846,27.0469 279.6784,26.7813 Q280.2721,26.5 280.8971,25.9219 L280.8971,28.6406 Z " fill="#000000"/><text fill="#000000" font-family="sans-serif" font-size="14" lengthAdjust="spacing" textLength="49.1436" x="298.4284" y="27.8467">Cliente</text><line style="stroke:#181818;stroke-width:0.5;" x1="220.84" x2="392.6603" y1="39" y2="39"/><text fill="#000000" font-family="sans-serif" font-size="14" lengthAdjust="spacing" textLength="64.3604" x="225.84" y="55.9951">+UUID id</text><text fill="#000000" font-family="sans-serif" font-size="14" lengthAdjust="spacing" textLength="97.6514" x="225.84" y="72.292">+String nome</text><text fill="#000000" font-family="sans-serif" font-size="14" lengthAdjust="spacing" textLength="137.1631" x="225.84" y="88.5889">+String documento</text><text fill="#000000" font-family="sans-serif" font-size="14" lengthAdjust="spacing" textLength="96.5713" x="225.84" y="104.8857">+String email</text><line style="stroke:#181818;stroke-width:0.5;" x1="220.84" x2="392.6603" y1="112.1875" y2="112.1875"/><text fill="#000000" font-family="sans-serif" font-size="14" lengthAdjust="spacing" textLength="161.8203" x="225.84" y="129.1826">+void atualizarDados()</text></g><!--class Produto--><g class="entity" data-entity="Produto" data-source-line="11" data-uid="ent0003" id="entity_Produto"><rect fill="#F1F1F1" height="113.1875" rx="2.5" ry="2.5" style="stroke:#181818;stroke-width:0.5;" width="181.2578" x="429.12" y="15.14"/><ellipse cx="488.2098" cy="31.14" fill="#ADD1B2" rx="11" ry="11" style="stroke:#181818;stroke-width:1;"/><path d="M491.1786,36.7806 Q490.6005,37.0775 489.9598,37.2181 Q489.3192,37.3744 488.6161,37.3744 Q486.1161,37.3744 484.788,35.7337 Q483.4755,34.0775 483.4755,30.9525 Q483.4755,27.8275 484.788,26.1712 Q486.1161,24.515 488.6161,24.515 Q489.3192,24.515 489.9598,24.6712 Q490.6161,24.8275 491.1786,25.1244 L491.1786,27.8431 Q490.5536,27.265 489.9598,26.9994 Q489.3661,26.7181 488.7411,26.7181 Q487.3973,26.7181 486.7098,27.7962 Q486.0223,28.8587 486.0223,30.9525 Q486.0223,33.0462 486.7098,34.1244 Q487.3973,35.1869 488.7411,35.1869 Q489.3661,35.1869 489.9598,34.9212 Q490.5536,34.64 491.1786,34.0619 L491.1786,36.7806 Z " fill="#000000"/><text fill="#000000" font-family="sans-serif" font-size="14" lengthAdjust="spacing" textLength="54.5781" x="508.7098" y="35.9867">Produto</text><line style="stroke:#181818;stroke-width:0.5;" x1="430.12" x2="609.3778" y1="47.14" y2="47.14"/><text fill="#000000" font-family="sans-serif" font-size="14" lengthAdjust="spacing" textLength="64.3604" x="435.12" y="64.1351">+UUID id</text><text fill="#000000" font-family="sans-serif" font-size="14" lengthAdjust="spacing" textLength="97.6514" x="435.12" y="80.432">+String nome</text><text fill="#000000" font-family="sans-serif" font-size="14" lengthAdjust="spacing" textLength="169.2578" x="435.12" y="96.7289">+BigDecimal precoBase</text><line style="stroke:#181818;stroke-width:0.5;" x1="430.12" x2="609.3778" y1="104.0306" y2="104.0306"/><text fill="#000000" font-family="sans-serif" font-size="14" lengthAdjust="spacing" textLength="161.8203" x="435.12" y="121.0257">+void atualizarDados()</text></g><!--class Pedido--><g class="entity" data-entity="Pedido" data-source-line="18" data-uid="ent0004" id="entity_Pedido"><rect fill="#F1F1F1" height="210.9688" rx="2.5" ry="2.5" style="stroke:#181818;stroke-width:0.5;" width="599.501" x="7" y="213.48"/><ellipse cx="278.8584" cy="229.48" fill="#ADD1B2" rx="11" ry="11" style="stroke:#181818;stroke-width:1;"/><path d="M281.8271,235.1206 Q281.249,235.4175 280.6084,235.5581 Q279.9678,235.7144 279.2646,235.7144 Q276.7646,235.7144 275.4365,234.0738 Q274.124,232.4175 274.124,229.2925 Q274.124,226.1675 275.4365,224.5113 Q276.7646,222.855 279.2646,222.855 Q279.9678,222.855 280.6084,223.0113 Q281.2646,223.1675 281.8271,223.4644 L281.8271,226.1831 Q281.2021,225.605 280.6084,225.3394 Q280.0146,225.0581 279.3896,225.0581 Q278.0459,225.0581 277.3584,226.1363 Q276.6709,227.1988 276.6709,229.2925 Q276.6709,231.3863 277.3584,232.4644 Q278.0459,233.5269 279.3896,233.5269 Q280.0146,233.5269 280.6084,233.2613 Q281.2021,232.98 281.8271,232.4019 L281.8271,235.1206 Z " fill="#000000"/><text fill="#000000" font-family="sans-serif" font-size="14" lengthAdjust="spacing" textLength="47.2842" x="299.3584" y="234.3267">Pedido</text><line style="stroke:#181818;stroke-width:0.5;" x1="8" x2="605.501" y1="245.48" y2="245.48"/><text fill="#000000" font-family="sans-serif" font-size="14" lengthAdjust="spacing" textLength="64.3604" x="13" y="262.4751">+UUID id</text><text fill="#000000" font-family="sans-serif" font-size="14" lengthAdjust="spacing" textLength="205.2422" x="13" y="278.772">+LocalDateTime dataCriacao</text><text fill="#000000" font-family="sans-serif" font-size="14" lengthAdjust="spacing" textLength="151.0947" x="13" y="295.0689">+StatusPedido status</text><line style="stroke:#181818;stroke-width:0.5;" x1="8" x2="605.501" y1="302.3706" y2="302.3706"/><text fill="#000000" font-family="sans-serif" font-size="14" lengthAdjust="spacing" textLength="138.585" x="13" y="319.3657">+BigDecimal total()</text><text fill="#000000" font-family="sans-serif" font-size="14" lengthAdjust="spacing" textLength="587.501" x="13" y="335.6626">+void adicionarItem(Produto produto, Integer quantidade, BigDecimal precoVenda)</text><text fill="#000000" font-family="sans-serif" font-size="14" lengthAdjust="spacing" textLength="232.3262" x="13" y="351.9595">+void removerItem(UUID itemId)</text><text fill="#000000" font-family="sans-serif" font-size="14" lengthAdjust="spacing" textLength="449.2852" x="13" y="368.2564">+void alterarQuantidade(UUID itemId, Integer novaQuantidade)</text><text fill="#000000" font-family="sans-serif" font-size="14" lengthAdjust="spacing" textLength="112.4648" x="13" y="384.5532">+void finalizar()</text><text fill="#000000" font-family="sans-serif" font-size="14" lengthAdjust="spacing" textLength="97.4189" x="13" y="400.8501">+void pagar()</text><text fill="#000000" font-family="sans-serif" font-size="14" lengthAdjust="spacing" textLength="117.2979" x="13" y="417.147">+void entregar()</text></g><!--class ItemPedido--><g class="entity" data-entity="ItemPedido" data-source-line="31" data-uid="ent0005" id="entity_ItemPedido"><rect fill="#F1F1F1" height="129.4844" rx="2.5" ry="2.5" style="stroke:#181818;stroke-width:0.5;" width="191.6963" x="119.9" y="501.45"/><ellipse cx="171.9215" cy="517.45" fill="#ADD1B2" rx="11" ry="11" style="stroke:#181818;stroke-width:1;"/><path d="M174.8902,523.0906 Q174.3121,523.3875 173.6715,523.5281 Q173.0309,523.6844 172.3277,523.6844 Q169.8277,523.6844 168.4996,522.0438 Q167.1871,520.3875 167.1871,517.2625 Q167.1871,514.1375 168.4996,512.4813 Q169.8277,510.825 172.3277,510.825 Q173.0309,510.825 173.6715,510.9813 Q174.3277,511.1375 174.8902,511.4344 L174.8902,514.1531 Q174.2652,513.575 173.6715,513.3094 Q173.0777,513.0281 172.4527,513.0281 Q171.109,513.0281 170.4215,514.1063 Q169.734,515.1688 169.734,517.2625 Q169.734,519.3563 170.4215,520.4344 Q171.109,521.4969 172.4527,521.4969 Q173.0777,521.4969 173.6715,521.2313 Q174.2652,520.95 174.8902,520.3719 L174.8902,523.0906 Z " fill="#000000"/><text fill="#000000" font-family="sans-serif" font-size="14" lengthAdjust="spacing" textLength="79.1533" x="192.4215" y="522.2967">ItemPedido</text><line style="stroke:#181818;stroke-width:0.5;" x1="120.9" x2="310.5963" y1="533.45" y2="533.45"/><text fill="#000000" font-family="sans-serif" font-size="14" lengthAdjust="spacing" textLength="64.3604" x="125.9" y="550.4451">+UUID id</text><text fill="#000000" font-family="sans-serif" font-size="14" lengthAdjust="spacing" textLength="125.7813" x="125.9" y="566.742">+Produto produto</text><text fill="#000000" font-family="sans-serif" font-size="14" lengthAdjust="spacing" textLength="146.0977" x="125.9" y="583.0389">+Integer quantidade</text><text fill="#000000" font-family="sans-serif" font-size="14" lengthAdjust="spacing" textLength="179.6963" x="125.9" y="599.3357">+BigDecimal precoVenda</text><line style="stroke:#181818;stroke-width:0.5;" x1="120.9" x2="310.5963" y1="606.6375" y2="606.6375"/><text fill="#000000" font-family="sans-serif" font-size="14" lengthAdjust="spacing" textLength="163.6387" x="125.9" y="623.6326">+BigDecimal subtotal()</text></g><!--class Notificador--><g class="entity" data-entity="Notificador" data-source-line="39" data-uid="ent0006" id="entity_Notificador"><rect fill="#F1F1F1" height="64.2969" rx="2.5" ry="2.5" style="stroke:#181818;stroke-width:0.5;" width="360.3252" x="346.59" y="534.04"/><ellipse cx="484.1427" cy="550.04" fill="#B4A7E5" rx="11" ry="11" style="stroke:#181818;stroke-width:1;"/><path d="M480.0646,545.8056 L480.0646,543.6494 L487.4552,543.6494 L487.4552,545.8056 L484.9865,545.8056 L484.9865,553.8838 L487.4552,553.8838 L487.4552,556.04 L480.0646,556.04 L480.0646,553.8838 L482.5334,553.8838 L482.5334,545.8056 L480.0646,545.8056 Z " fill="#000000"/><text fill="#000000" font-family="sans-serif" font-size="14" font-style="italic" lengthAdjust="spacing" textLength="76.7197" x="504.6427" y="554.8867">Notificador</text><line style="stroke:#181818;stroke-width:0.5;" x1="347.59" x2="705.9152" y1="566.04" y2="566.04"/><line style="stroke:#181818;stroke-width:0.5;" x1="347.59" x2="705.9152" y1="574.04" y2="574.04"/><text fill="#000000" font-family="sans-serif" font-size="14" lengthAdjust="spacing" textLength="348.3252" x="352.59" y="591.0351">+void notificar(Cliente cliente, String mensagem)</text></g><!--class EmailNotifier--><g class="entity" data-entity="EmailNotifier" data-source-line="43" data-uid="ent0007" id="entity_EmailNotifier"><rect fill="#F1F1F1" height="64.2969" rx="2.5" ry="2.5" style="stroke:#181818;stroke-width:0.5;" width="360.3252" x="346.59" y="691.93"/><ellipse cx="477.2795" cy="707.93" fill="#ADD1B2" rx="11" ry="11" style="stroke:#181818;stroke-width:1;"/><path d="M480.2482,713.5706 Q479.6701,713.8675 479.0295,714.0081 Q478.3888,714.1644 477.6857,714.1644 Q475.1857,714.1644 473.8576,712.5238 Q472.5451,710.8675 472.5451,707.7425 Q472.5451,704.6175 473.8576,702.9613 Q475.1857,701.305 477.6857,701.305 Q478.3888,701.305 479.0295,701.4613 Q479.6857,701.6175 480.2482,701.9144 L480.2482,704.6331 Q479.6232,704.055 479.0295,703.7894 Q478.4357,703.5081 477.8107,703.5081 Q476.467,703.5081 475.7795,704.5863 Q475.092,705.6488 475.092,707.7425 Q475.092,709.8363 475.7795,710.9144 Q476.467,711.9769 477.8107,711.9769 Q478.4357,711.9769 479.0295,711.7113 Q479.6232,711.43 480.2482,710.8519 L480.2482,713.5706 Z " fill="#000000"/><text fill="#000000" font-family="sans-serif" font-size="14" lengthAdjust="spacing" textLength="90.4463" x="497.7795" y="712.7767">EmailNotifier</text><line style="stroke:#181818;stroke-width:0.5;" x1="347.59" x2="705.9152" y1="723.93" y2="723.93"/><line style="stroke:#181818;stroke-width:0.5;" x1="347.59" x2="705.9152" y1="731.93" y2="731.93"/><text fill="#000000" font-family="sans-serif" font-size="14" lengthAdjust="spacing" textLength="348.3252" x="352.59" y="748.9251">+void notificar(Cliente cliente, String mensagem)</text></g><!--link Cliente to Pedido--><g class="link" data-entity-1="Cliente" data-entity-2="Pedido" data-source-line="47" data-uid="lnk8" id="link_Cliente_Pedido"><path codeLine="47" d="M306.75,136.85 C306.75,160.26 306.75,187.4 306.75,213.42" fill="none" id="Cliente-Pedido" style="stroke:#181818;stroke-width:1;"/><text fill="#000000" font-family="sans-serif" font-size="13" lengthAdjust="spacing" textLength="19.3667" x="307.75" y="179.5469">faz</text><text fill="#000000" font-family="sans-serif" font-size="13" lengthAdjust="spacing" textLength="8.271" x="298.3515" y="156.4114">1</text><text fill="#000000" font-family="sans-serif" font-size="13" lengthAdjust="spacing" textLength="23.0356" x="282.9426" y="202.5431">0..*</text></g><!--link Pedido to ItemPedido--><g class="link" data-entity-1="Pedido" data-entity-2="ItemPedido" data-source-line="48" data-uid="lnk9" id="link_Pedido_ItemPedido"><path codeLine="48" d="M225.02,424.76 C220.13,434.44 215.92,444.4 212.75,454.45 C208.1,469.22 206.67,485.65 206.9,501.23" fill="none" id="Pedido-ItemPedido" style="stroke:#181818;stroke-width:1;"/><text fill="#000000" font-family="sans-serif" font-size="13" lengthAdjust="spacing" textLength="49.0991" x="213.75" y="467.5169">cont&#233;m</text><text fill="#000000" font-family="sans-serif" font-size="13" lengthAdjust="spacing" textLength="8.271" x="211.2691" y="444.4434">1</text><text fill="#000000" font-family="sans-serif" font-size="13" lengthAdjust="spacing" textLength="23.0356" x="181.6764" y="490.3786">1..*</text></g><!--reverse link Pedido to ItemPedido--><g class="link" data-entity-1="Pedido" data-entity-2="ItemPedido" data-source-line="49" data-uid="lnk10" id="link_Pedido_ItemPedido"><path codeLine="49" d="M280.217,436.1078 C275.617,452.0178 273.68,456.56 267.75,471.45 C263.82,481.3 259.07,491.42 254.05,501.19" fill="none" id="Pedido-backto-ItemPedido" style="stroke:#181818;stroke-width:1;"/><polygon fill="none" points="283.55,424.58,278.0409,429.2329,280.217,436.1078,285.7261,431.4549,283.55,424.58" style="stroke:#181818;stroke-width:1;"/><text fill="#000000" font-family="sans-serif" font-size="13" lengthAdjust="spacing" textLength="56.5576" x="274.75" y="467.5169">gerencia</text></g><!--reverse link Notificador to EmailNotifier--><g class="link" data-entity-1="Notificador" data-entity-2="EmailNotifier" data-source-line="50" data-uid="lnk11" id="link_Notificador_EmailNotifier"><path codeLine="50" d="M526.75,616.74 C526.75,643.78 526.75,664.55 526.75,691.58" fill="none" id="Notificador-backto-EmailNotifier" style="stroke:#181818;stroke-width:1;"/><polygon fill="none" points="526.75,598.74,520.75,616.74,532.75,616.74,526.75,598.74" style="stroke:#181818;stroke-width:1;"/></g><!--link Pedido to Notificador--><g class="link" data-entity-1="Pedido" data-entity-2="Notificador" data-source-line="51" data-uid="lnk12" id="link_Pedido_Notificador"><path codeLine="51" d="M400.69,424.67 C436.08,464.12 469.7234,501.6237 494.5634,529.3137" fill="none" id="Pedido-to-Notificador" style="stroke:#181818;stroke-width:1;stroke-dasharray:7,7;"/><polygon fill="#181818" points="498.57,533.78,495.5377,524.4096,495.2312,530.0581,489.5826,529.7517,498.57,533.78" style="stroke:#181818;stroke-width:1;"/><text fill="#000000" font-family="sans-serif" font-size="13" lengthAdjust="spacing" textLength="132.0439" x="436.75" y="467.5169">usa para notifica&#231;&#227;o</text></g><!--SRC=[fLJDJZCn3BplKrWz5IWLN2k4z44vh8GGY9-xIToLnIOkIRQ70a_30V4SVJ7ItQPD2v-4n2c9Cnvx9jxrJsodwD20gj7xVo4uVcm2bKhiBSy9ZegYlO7pcia6WfS2u03kxyini6xtjp77Lc35K7xMeXeJKoGFaa6ksy1CM0E61ckUenkZ5j_VAzvIkMidkWdoYt9dN8r9iS4QfewKdA6dNrKWpVgd0fUYi1vZe3is11e3dZj6XKb8fFIhPDyUTji84h2EfJPDQ5Oi5bqPoFIJj6ct3g2ClbRauBb16rYZfi4tLGzaDMQKZepCg2Fice-xKkT5wq0EtSsQDCTjYbgPuGQJvK_OTixbIgPORGVY0plgOcjdbqtzrzqTzMtikm4_lcphmUwDRnwJtx41ZankWehWIW9FMCLNTwiksdxjAkpwQQ1LjmxIOCMPzLYHoGHTBAUs8wI_i2LGxxW7XuVGEneEztjf44SmmNcnEYJ4SOl831r1_3B3ujCaf4JOrdqqagnYB787JbuZR4j6oXyEJxUy6a7Z4PR_XBMwnSVYNRu0]--></g></svg>