<svg xmlns="http://www.w3.org/2000/svg" xmlns:xlink="http://www.w3.org/1999/xlink" contentStyleType="text/css" data-diagram-type="SEQUENCE" height="693px" preserveAspectRatio="none" style="width:1343px;height:693px;background:#FFFFFF;" version="1.1" viewBox="0 0 1343 693" width="1343px" zoomAndPan="magnify"><defs/><g><g><title>PagamentoService</title><rect fill="#FFFFFF" height="257.8672" style="stroke:#181818;stroke-width:1;" width="10" x="336.2456" y="155.5625"/></g><g><title>EntregaService</title><rect fill="#FFFFFF" height="116.5313" style="stroke:#181818;stroke-width:1;" width="10" x="1076.5107" y="477.6953"/></g><rect fill="none" height="177.6016" style="stroke:#000000;stroke-width:1.5;" width="820.6001" x="10" y="228.8281"/><g><title>Cliente</title><rect fill="#000000" fill-opacity="0.00000" height="530.9297" width="8" x="43.5718" y="81.2969"/><line style="stroke:#181818;stroke-width:0.5;stroke-dasharray:5,5;" x1="47" x2="47" y1="81.2969" y2="612.2266"/></g><g><title>PagamentoService</title><rect fill="#000000" fill-opacity="0.00000" height="530.9297" width="8" x="337.2456" y="81.2969"/><line style="stroke:#181818;stroke-width:0.5;stroke-dasharray:5,5;" x1="340.542" x2="340.542" y1="81.2969" y2="612.2266"/></g><g><title>GatewayPagamento</title><rect fill="#000000" fill-opacity="0.00000" height="530.9297" width="8" x="553.1143" y="81.2969"/><line style="stroke:#181818;stroke-width:0.5;stroke-dasharray:5,5;" x1="556.3589" x2="556.3589" y1="81.2969" y2="612.2266"/></g><g><title>Pedido</title><rect fill="#000000" fill-opacity="0.00000" height="530.9297" width="8" x="671.5117" y="81.2969"/><line style="stroke:#181818;stroke-width:0.5;stroke-dasharray:5,5;" x1="674.8696" x2="674.8696" y1="81.2969" y2="612.2266"/></g><g><title>EmailNotifier</title><rect fill="#000000" fill-opacity="0.00000" height="530.9297" width="8" x="764.377" y="81.2969"/><line style="stroke:#181818;stroke-width:0.5;stroke-dasharray:5,5;" x1="768.1538" x2="768.1538" y1="81.2969" y2="612.2266"/></g><g><title>EntregaService</title><rect fill="#000000" fill-opacity="0.00000" height="530.9297" width="8" x="1077.5107" y="81.2969"/><line style="stroke:#181818;stroke-width:0.5;stroke-dasharray:5,5;" x1="1081.1187" x2="1081.1187" y1="81.2969" y2="612.2266"/></g><g><title>Transportadora</title><rect fill="#000000" fill-opacity="0.00000" height="530.9297" width="8" x="1266.1035" y="81.2969"/><line style="stroke:#181818;stroke-width:0.5;stroke-dasharray:5,5;" x1="1270.0449" x2="1270.0449" y1="81.2969" y2="612.2266"/></g><g class="participant participant-head" data-participant="Cliente"><text fill="#000000" font-family="sans-serif" font-size="14" lengthAdjust="spacing" textLength="49.1436" x="20" y="77.9951">Cliente</text><ellipse cx="47.5718" cy="13.5" fill="#E2E2F0" rx="8" ry="8" style="stroke:#181818;stroke-width:0.5;"/><path d="M47.5718,21.5 L47.5718,48.5 M34.5718,29.5 L60.5718,29.5 M47.5718,48.5 L34.5718,63.5 M47.5718,48.5 L60.5718,63.5" fill="none" style="stroke:#181818;stroke-width:0.5;"/></g><g class="participant participant-tail" data-participant="Cliente"><text fill="#000000" font-family="sans-serif" font-size="14" lengthAdjust="spacing" textLength="49.1436" x="20" y="624.2217">Cliente</text><ellipse cx="47.5718" cy="636.0234" fill="#E2E2F0" rx="8" ry="8" style="stroke:#181818;stroke-width:0.5;"/><path d="M47.5718,644.0234 L47.5718,671.0234 M34.5718,652.0234 L60.5718,652.0234 M47.5718,671.0234 L34.5718,686.0234 M47.5718,671.0234 L60.5718,686.0234" fill="none" style="stroke:#181818;stroke-width:0.5;"/></g><g class="participant participant-head" data-participant="PagamentoService"><rect fill="#E2E2F0" height="30.2969" rx="2.5" ry="2.5" style="stroke:#181818;stroke-width:0.5;" width="145.4072" x="268.542" y="50"/><text fill="#000000" font-family="sans-serif" font-size="14" lengthAdjust="spacing" textLength="131.4072" x="275.542" y="69.9951">PagamentoService</text></g><g class="participant participant-tail" data-participant="PagamentoService"><rect fill="#E2E2F0" height="30.2969" rx="2.5" ry="2.5" style="stroke:#181818;stroke-width:0.5;" width="145.4072" x="268.542" y="611.2266"/><text fill="#000000" font-family="sans-serif" font-size="14" lengthAdjust="spacing" textLength="131.4072" x="275.542" y="631.2217">PagamentoService</text></g><g class="participant participant-head" data-participant="GatewayPagamento"><rect fill="#E2E2F0" height="30.2969" rx="2.5" ry="2.5" style="stroke:#181818;stroke-width:0.5;" width="155.5107" x="479.3589" y="50"/><text fill="#000000" font-family="sans-serif" font-size="14" lengthAdjust="spacing" textLength="141.5107" x="486.3589" y="69.9951">GatewayPagamento</text></g><g class="participant participant-tail" data-participant="GatewayPagamento"><rect fill="#E2E2F0" height="30.2969" rx="2.5" ry="2.5" style="stroke:#181818;stroke-width:0.5;" width="155.5107" x="479.3589" y="611.2266"/><text fill="#000000" font-family="sans-serif" font-size="14" lengthAdjust="spacing" textLength="141.5107" x="486.3589" y="631.2217">GatewayPagamento</text></g><g class="participant participant-head" data-participant="Pedido"><rect fill="#E2E2F0" height="30.2969" rx="2.5" ry="2.5" style="stroke:#181818;stroke-width:0.5;" width="61.2842" x="644.8696" y="50"/><text fill="#000000" font-family="sans-serif" font-size="14" lengthAdjust="spacing" textLength="47.2842" x="651.8696" y="69.9951">Pedido</text></g><g class="participant participant-tail" data-participant="Pedido"><rect fill="#E2E2F0" height="30.2969" rx="2.5" ry="2.5" style="stroke:#181818;stroke-width:0.5;" width="61.2842" x="644.8696" y="611.2266"/><text fill="#000000" font-family="sans-serif" font-size="14" lengthAdjust="spacing" textLength="47.2842" x="651.8696" y="631.2217">Pedido</text></g><g class="participant participant-head" data-participant="EmailNotifier"><rect fill="#E2E2F0" height="30.2969" rx="2.5" ry="2.5" style="stroke:#181818;stroke-width:0.5;" width="104.4463" x="716.1538" y="50"/><text fill="#000000" font-family="sans-serif" font-size="14" lengthAdjust="spacing" textLength="90.4463" x="723.1538" y="69.9951">EmailNotifier</text></g><g class="participant participant-tail" data-participant="EmailNotifier"><rect fill="#E2E2F0" height="30.2969" rx="2.5" ry="2.5" style="stroke:#181818;stroke-width:0.5;" width="104.4463" x="716.1538" y="611.2266"/><text fill="#000000" font-family="sans-serif" font-size="14" lengthAdjust="spacing" textLength="90.4463" x="723.1538" y="631.2217">EmailNotifier</text></g><g class="participant participant-head" data-participant="EntregaService"><rect fill="#E2E2F0" height="30.2969" rx="2.5" ry="2.5" style="stroke:#181818;stroke-width:0.5;" width="120.7842" x="1021.1187" y="50"/><text fill="#000000" font-family="sans-serif" font-size="14" lengthAdjust="spacing" textLength="106.7842" x="1028.1187" y="69.9951">EntregaService</text></g><g class="participant participant-tail" data-participant="EntregaService"><rect fill="#E2E2F0" height="30.2969" rx="2.5" ry="2.5" style="stroke:#181818;stroke-width:0.5;" width="120.7842" x="1021.1187" y="611.2266"/><text fill="#000000" font-family="sans-serif" font-size="14" lengthAdjust="spacing" textLength="106.7842" x="1028.1187" y="631.2217">EntregaService</text></g><g class="participant participant-head" data-participant="Transportadora"><rect fill="#E2E2F0" height="30.2969" rx="2.5" ry="2.5" style="stroke:#181818;stroke-width:0.5;" width="122.1172" x="1209.0449" y="50"/><text fill="#000000" font-family="sans-serif" font-size="14" lengthAdjust="spacing" textLength="108.1172" x="1216.0449" y="69.9951">Transportadora</text></g><g class="participant participant-tail" data-participant="Transportadora"><rect fill="#E2E2F0" height="30.2969" rx="2.5" ry="2.5" style="stroke:#181818;stroke-width:0.5;" width="122.1172" x="1209.0449" y="611.2266"/><text fill="#000000" font-family="sans-serif" font-size="14" lengthAdjust="spacing" textLength="108.1172" x="1216.0449" y="631.2217">Transportadora</text></g><g><title>PagamentoService</title><rect fill="#FFFFFF" height="257.8672" style="stroke:#181818;stroke-width:1;" width="10" x="336.2456" y="155.5625"/></g><g><title>EntregaService</title><rect fill="#FFFFFF" height="116.5313" style="stroke:#181818;stroke-width:1;" width="10" x="1076.5107" y="477.6953"/></g><rect fill="#EEEEEE" height="3" style="stroke:#EEEEEE;stroke-width:1;" width="1336.1621" x="0" y="111.8633"/><line style="stroke:#000000;stroke-width:1;" x1="0" x2="1336.1621" y1="111.8633" y2="111.8633"/><line style="stroke:#000000;stroke-width:1;" x1="0" x2="1336.1621" y1="114.8633" y2="114.8633"/><rect fill="#EEEEEE" height="23.1328" style="stroke:#000000;stroke-width:2;" width="101.6675" x="617.2473" y="101.2969"/><text fill="#000000" font-family="sans-serif" font-size="13" font-weight="bold" lengthAdjust="spacing" textLength="83.1416" x="623.2473" y="117.3638">Pagamento</text><g class="message" data-participant-1="Cliente" data-participant-2="PagamentoService"><polygon fill="#181818" points="324.2456,151.5625,334.2456,155.5625,324.2456,159.5625,328.2456,155.5625" style="stroke:#181818;stroke-width:1;"/><line style="stroke:#181818;stroke-width:1;" x1="47.5718" x2="330.2456" y1="155.5625" y2="155.5625"/><text fill="#000000" font-family="sans-serif" font-size="13" lengthAdjust="spacing" textLength="269.6738" x="54.5718" y="150.4966">pagarPedido(pedidoId, dadosPagamento)</text></g><g class="message" data-participant-1="PagamentoService" data-participant-2="Pedido"><polygon fill="#181818" points="663.5117,180.6953,673.5117,184.6953,663.5117,188.6953,667.5117,184.6953" style="stroke:#181818;stroke-width:1;"/><line style="stroke:#181818;stroke-width:1;" x1="346.2456" x2="669.5117" y1="184.6953" y2="184.6953"/><text fill="#000000" font-family="sans-serif" font-size="13" lengthAdjust="spacing" textLength="292.7793" x="353.2456" y="179.6294">validarStatus("AGUARDANDO_PAGAMENTO")</text></g><g class="message" data-participant-1="PagamentoService" data-participant-2="GatewayPagamento"><polygon fill="#181818" points="545.1143,209.8281,555.1143,213.8281,545.1143,217.8281,549.1143,213.8281" style="stroke:#181818;stroke-width:1;"/><line style="stroke:#181818;stroke-width:1;" x1="346.2456" x2="551.1143" y1="213.8281" y2="213.8281"/><text fill="#000000" font-family="sans-serif" font-size="13" lengthAdjust="spacing" textLength="186.8687" x="353.2456" y="208.7622">processar(dadosPagamento)</text></g><path d="M10,228.8281 L74.4429,228.8281 L74.4429,235.9609 L64.4429,245.9609 L10,245.9609 L10,228.8281" fill="#EEEEEE" style="stroke:#000000;stroke-width:1.5;"/><rect fill="none" height="177.6016" style="stroke:#000000;stroke-width:1.5;" width="820.6001" x="10" y="228.8281"/><text fill="#000000" font-family="sans-serif" font-size="13" font-weight="bold" lengthAdjust="spacing" textLength="19.4429" x="25" y="241.895">alt</text><text fill="#000000" font-family="sans-serif" font-size="11" font-weight="bold" lengthAdjust="spacing" textLength="142.3501" x="89.4429" y="241.0386">[pagamento aprovado]</text><g class="message" data-participant-1="GatewayPagamento" data-participant-2="PagamentoService"><polygon fill="#181818" points="357.2456,263.0938,347.2456,267.0938,357.2456,271.0938,353.2456,267.0938" style="stroke:#181818;stroke-width:1;"/><line style="stroke:#181818;stroke-width:1;stroke-dasharray:2,2;" x1="351.2456" x2="556.1143" y1="267.0938" y2="267.0938"/><text fill="#000000" font-family="sans-serif" font-size="13" lengthAdjust="spacing" textLength="61.8008" x="363.2456" y="262.0278">sucesso()</text></g><g class="message" data-participant-1="PagamentoService" data-participant-2="Pedido"><polygon fill="#181818" points="663.5117,292.2266,673.5117,296.2266,663.5117,300.2266,667.5117,296.2266" style="stroke:#181818;stroke-width:1;"/><line style="stroke:#181818;stroke-width:1;" x1="346.2456" x2="669.5117" y1="296.2266" y2="296.2266"/><text fill="#000000" font-family="sans-serif" font-size="13" lengthAdjust="spacing" textLength="120.4341" x="353.2456" y="291.1606">setStatus("PAGO")</text></g><g class="message" data-participant-1="PagamentoService" data-participant-2="EmailNotifier"><polygon fill="#181818" points="756.377,321.3594,766.377,325.3594,756.377,329.3594,760.377,325.3594" style="stroke:#181818;stroke-width:1;"/><line style="stroke:#181818;stroke-width:1;" x1="346.2456" x2="762.377" y1="325.3594" y2="325.3594"/><text fill="#000000" font-family="sans-serif" font-size="13" lengthAdjust="spacing" textLength="279.4365" x="353.2456" y="320.2935">notificar(cliente, "Pagamento confirmado")</text></g><line style="stroke:#000000;stroke-width:1;stroke-dasharray:2,2;" x1="10" x2="830.6001" y1="334.3594" y2="334.3594"/><text fill="#000000" font-family="sans-serif" font-size="11" font-weight="bold" lengthAdjust="spacing" textLength="123.2451" x="15" y="344.5698">[pagamento falhou]</text><g class="message" data-participant-1="GatewayPagamento" data-participant-2="PagamentoService"><polygon fill="#181818" points="357.2456,365.2969,347.2456,369.2969,357.2456,373.2969,353.2456,369.2969" style="stroke:#181818;stroke-width:1;"/><line style="stroke:#181818;stroke-width:1;stroke-dasharray:2,2;" x1="351.2456" x2="556.1143" y1="369.2969" y2="369.2969"/><text fill="#000000" font-family="sans-serif" font-size="13" lengthAdjust="spacing" textLength="42.5039" x="363.2456" y="364.231">falha()</text></g><g class="message" data-participant-1="PagamentoService" data-participant-2="Cliente"><polygon fill="#181818" points="58.5718,394.4297,48.5718,398.4297,58.5718,402.4297,54.5718,398.4297" style="stroke:#181818;stroke-width:1;"/><line style="stroke:#181818;stroke-width:1;stroke-dasharray:2,2;" x1="52.5718" x2="335.2456" y1="398.4297" y2="398.4297"/><text fill="#000000" font-family="sans-serif" font-size="13" lengthAdjust="spacing" textLength="210.1138" x="64.5718" y="393.3638">excecao("Falha no pagamento")</text></g><rect fill="#EEEEEE" height="3" style="stroke:#EEEEEE;stroke-width:1;" width="1336.1621" x="0" y="433.9961"/><line style="stroke:#000000;stroke-width:1;" x1="0" x2="1336.1621" y1="433.9961" y2="433.9961"/><line style="stroke:#000000;stroke-width:1;" x1="0" x2="1336.1621" y1="436.9961" y2="436.9961"/><rect fill="#EEEEEE" height="23.1328" style="stroke:#000000;stroke-width:2;" width="76.1816" x="629.9902" y="423.4297"/><text fill="#000000" font-family="sans-serif" font-size="13" font-weight="bold" lengthAdjust="spacing" textLength="57.6558" x="635.9902" y="439.4966">Entrega</text><g class="message" data-participant-1="Cliente" data-participant-2="EntregaService"><polygon fill="#181818" points="1064.5107,473.6953,1074.5107,477.6953,1064.5107,481.6953,1068.5107,477.6953" style="stroke:#181818;stroke-width:1;"/><line style="stroke:#181818;stroke-width:1;" x1="47.5718" x2="1070.5107" y1="477.6953" y2="477.6953"/><text fill="#000000" font-family="sans-serif" font-size="13" lengthAdjust="spacing" textLength="168.7778" x="54.5718" y="472.6294">solicitarEntrega(pedidoId)</text></g><g class="message" data-participant-1="EntregaService" data-participant-2="Pedido"><polygon fill="#181818" points="686.5117,502.8281,676.5117,506.8281,686.5117,510.8281,682.5117,506.8281" style="stroke:#181818;stroke-width:1;"/><line style="stroke:#181818;stroke-width:1;" x1="680.5117" x2="1075.5107" y1="506.8281" y2="506.8281"/><text fill="#000000" font-family="sans-serif" font-size="13" lengthAdjust="spacing" textLength="145.0122" x="692.5117" y="501.7622">validarStatus("PAGO")</text></g><g class="message" data-participant-1="EntregaService" data-participant-2="Transportadora"><polygon fill="#181818" points="1258.1035,531.9609,1268.1035,535.9609,1258.1035,539.9609,1262.1035,535.9609" style="stroke:#181818;stroke-width:1;"/><line style="stroke:#181818;stroke-width:1;" x1="1086.5107" x2="1264.1035" y1="535.9609" y2="535.9609"/><text fill="#000000" font-family="sans-serif" font-size="13" lengthAdjust="spacing" textLength="159.5928" x="1093.5107" y="530.895">agendarEntrega(pedido)</text></g><g class="message" data-participant-1="EntregaService" data-participant-2="Pedido"><polygon fill="#181818" points="686.5117,561.0938,676.5117,565.0938,686.5117,569.0938,682.5117,565.0938" style="stroke:#181818;stroke-width:1;"/><line style="stroke:#181818;stroke-width:1;" x1="680.5117" x2="1075.5107" y1="565.0938" y2="565.0938"/><text fill="#000000" font-family="sans-serif" font-size="13" lengthAdjust="spacing" textLength="162.4429" x="692.5117" y="560.0278">setStatus("FINALIZADO")</text></g><g class="message" data-participant-1="EntregaService" data-participant-2="EmailNotifier"><polygon fill="#181818" points="779.377,590.2266,769.377,594.2266,779.377,598.2266,775.377,594.2266" style="stroke:#181818;stroke-width:1;"/><line style="stroke:#181818;stroke-width:1;" x1="773.377" x2="1080.5107" y1="594.2266" y2="594.2266"/><text fill="#000000" font-family="sans-serif" font-size="13" lengthAdjust="spacing" textLength="284.1338" x="785.377" y="589.1606">notificar(cliente, "Seu pedido foi entregue")</text></g><!--SRC=[bLFBQiCm4BphAqHEDYG_4731D0y2hHEQzD9BMQHrAd0i8ybk-_TTFvBuLTEUBAITsPdTCGYd3NzC5AOEMGR6AQ4oI1q_m1akTAkFQ0ebkezRSFW9txUQBXAbajshzGLK4ccdOeMc-v8wWsSOQt8oaDfC6mTI6s0i2EwYU12mHZLVF0p4yYNFwChKKhoi-kpad4lYihTgdu5mgY0pGxjim5dsgOY8lO14IJ171owttYpSleOlgp1QxTyFuJPyNaUd_SmVfUYFhfHgj41hmNXzUGmILpcfIu4g2ofXV4Yp61-3pKjgxVc4cNHaqLtTa8LI_JYWiqh2fTLHa7XHxsFEPtTLGgUnCXVIJ8IOM6ovYI7vqFa_l9G0-CK98QvvM7By4YX0UxDDYI29zwwbZ5Go9d5YzPIq9fUzd7NJMavD9nHN1wPvkKMj5QrUn5cFP29MpIA6WEwlGK0uawk-2d-gLMlVcrqKFktUmjLuixzi_8WvhvloM2kE5KcEnDUUT9Vx1m00]--></g></svg>