<svg xmlns="http://www.w3.org/2000/svg" xmlns:xlink="http://www.w3.org/1999/xlink" contentStyleType="text/css" data-diagram-type="SEQUENCE" height="428px" preserveAspectRatio="none" style="width:803px;height:428px;background:#FFFFFF;" version="1.1" viewBox="0 0 803 428" width="803px" zoomAndPan="magnify"><defs/><g><g><title>PedidoService</title><rect fill="#FFFFFF" height="225.6016" style="stroke:#181818;stroke-width:1;" width="10" x="256.6143" y="112.4297"/></g><rect fill="none" height="132.3359" style="stroke:#000000;stroke-width:1.5;" width="786.2437" x="10" y="198.6953"/><g><title>Cliente</title><rect fill="#000000" fill-opacity="0.00000" height="266.7344" width="8" x="43.5718" y="81.2969"/><line style="stroke:#181818;stroke-width:0.5;stroke-dasharray:5,5;" x1="47" x2="47" y1="81.2969" y2="348.0313"/></g><g><title>PedidoService</title><rect fill="#000000" fill-opacity="0.00000" height="266.7344" width="8" x="257.6143" y="81.2969"/><line style="stroke:#181818;stroke-width:0.5;stroke-dasharray:5,5;" x1="261.1016" x2="261.1016" y1="81.2969" y2="348.0313"/></g><g><title>Pedido</title><rect fill="#000000" fill-opacity="0.00000" height="266.7344" width="8" x="447.8193" y="81.2969"/><line style="stroke:#181818;stroke-width:0.5;stroke-dasharray:5,5;" x1="451.1772" x2="451.1772" y1="81.2969" y2="348.0313"/></g><g><title>EmailNotifier</title><rect fill="#000000" fill-opacity="0.00000" height="266.7344" width="8" x="730.0205" y="81.2969"/><line style="stroke:#181818;stroke-width:0.5;stroke-dasharray:5,5;" x1="733.7974" x2="733.7974" y1="81.2969" y2="348.0313"/></g><g class="participant participant-head" data-participant="Cliente"><text fill="#000000" font-family="sans-serif" font-size="14" lengthAdjust="spacing" textLength="49.1436" x="20" y="77.9951">Cliente</text><ellipse cx="47.5718" cy="13.5" fill="#E2E2F0" rx="8" ry="8" style="stroke:#181818;stroke-width:0.5;"/><path d="M47.5718,21.5 L47.5718,48.5 M34.5718,29.5 L60.5718,29.5 M47.5718,48.5 L34.5718,63.5 M47.5718,48.5 L60.5718,63.5" fill="none" style="stroke:#181818;stroke-width:0.5;"/></g><g class="participant participant-tail" data-participant="Cliente"><text fill="#000000" font-family="sans-serif" font-size="14" lengthAdjust="spacing" textLength="49.1436" x="20" y="360.0264">Cliente</text><ellipse cx="47.5718" cy="371.8281" fill="#E2E2F0" rx="8" ry="8" style="stroke:#181818;stroke-width:0.5;"/><path d="M47.5718,379.8281 L47.5718,406.8281 M34.5718,387.8281 L60.5718,387.8281 M47.5718,406.8281 L34.5718,421.8281 M47.5718,406.8281 L60.5718,421.8281" fill="none" style="stroke:#181818;stroke-width:0.5;"/></g><g class="participant participant-head" data-participant="PedidoService"><rect fill="#E2E2F0" height="30.2969" rx="2.5" ry="2.5" style="stroke:#181818;stroke-width:0.5;" width="113.0254" x="205.1016" y="50"/><text fill="#000000" font-family="sans-serif" font-size="14" lengthAdjust="spacing" textLength="99.0254" x="212.1016" y="69.9951">PedidoService</text></g><g class="participant participant-tail" data-participant="PedidoService"><rect fill="#E2E2F0" height="30.2969" rx="2.5" ry="2.5" style="stroke:#181818;stroke-width:0.5;" width="113.0254" x="205.1016" y="347.0313"/><text fill="#000000" font-family="sans-serif" font-size="14" lengthAdjust="spacing" textLength="99.0254" x="212.1016" y="367.0264">PedidoService</text></g><g class="participant participant-head" data-participant="Pedido"><rect fill="#E2E2F0" height="30.2969" rx="2.5" ry="2.5" style="stroke:#181818;stroke-width:0.5;" width="61.2842" x="421.1772" y="50"/><text fill="#000000" font-family="sans-serif" font-size="14" lengthAdjust="spacing" textLength="47.2842" x="428.1772" y="69.9951">Pedido</text></g><g class="participant participant-tail" data-participant="Pedido"><rect fill="#E2E2F0" height="30.2969" rx="2.5" ry="2.5" style="stroke:#181818;stroke-width:0.5;" width="61.2842" x="421.1772" y="347.0313"/><text fill="#000000" font-family="sans-serif" font-size="14" lengthAdjust="spacing" textLength="47.2842" x="428.1772" y="367.0264">Pedido</text></g><g class="participant participant-head" data-participant="EmailNotifier"><rect fill="#E2E2F0" height="30.2969" rx="2.5" ry="2.5" style="stroke:#181818;stroke-width:0.5;" width="104.4463" x="681.7974" y="50"/><text fill="#000000" font-family="sans-serif" font-size="14" lengthAdjust="spacing" textLength="90.4463" x="688.7974" y="69.9951">EmailNotifier</text></g><g class="participant participant-tail" data-participant="EmailNotifier"><rect fill="#E2E2F0" height="30.2969" rx="2.5" ry="2.5" style="stroke:#181818;stroke-width:0.5;" width="104.4463" x="681.7974" y="347.0313"/><text fill="#000000" font-family="sans-serif" font-size="14" lengthAdjust="spacing" textLength="90.4463" x="688.7974" y="367.0264">EmailNotifier</text></g><g><title>PedidoService</title><rect fill="#FFFFFF" height="225.6016" style="stroke:#181818;stroke-width:1;" width="10" x="256.6143" y="112.4297"/></g><g class="message" data-participant-1="Cliente" data-participant-2="PedidoService"><polygon fill="#181818" points="244.6143,108.4297,254.6143,112.4297,244.6143,116.4297,248.6143,112.4297" style="stroke:#181818;stroke-width:1;"/><line style="stroke:#181818;stroke-width:1;" x1="47.5718" x2="250.6143" y1="112.4297" y2="112.4297"/><text fill="#000000" font-family="sans-serif" font-size="13" lengthAdjust="spacing" textLength="190.0425" x="54.5718" y="107.3638">solicitarFinalizacao(pedidoId)</text></g><g class="message" data-participant-1="PedidoService" data-participant-2="Pedido"><polygon fill="#181818" points="439.8193,137.5625,449.8193,141.5625,439.8193,145.5625,443.8193,141.5625" style="stroke:#181818;stroke-width:1;"/><line style="stroke:#181818;stroke-width:1;" x1="266.6143" x2="445.8193" y1="141.5625" y2="141.5625"/><text fill="#000000" font-family="sans-serif" font-size="13" lengthAdjust="spacing" textLength="161.2051" x="273.6143" y="136.4966">validarStatus("ABERTO")</text></g><g class="message" data-participant-1="Pedido" data-participant-2="Pedido"><line style="stroke:#181818;stroke-width:1;" x1="451.8193" x2="493.8193" y1="170.6953" y2="170.6953"/><line style="stroke:#181818;stroke-width:1;" x1="493.8193" x2="493.8193" y1="170.6953" y2="183.6953"/><line style="stroke:#181818;stroke-width:1;" x1="452.8193" x2="493.8193" y1="183.6953" y2="183.6953"/><polygon fill="#181818" points="462.8193,179.6953,452.8193,183.6953,462.8193,187.6953,458.8193,183.6953" style="stroke:#181818;stroke-width:1;"/><text fill="#000000" font-family="sans-serif" font-size="13" lengthAdjust="spacing" textLength="86.5313" x="458.8193" y="165.6294">validarItens()</text></g><path d="M10,198.6953 L74.4429,198.6953 L74.4429,205.8281 L64.4429,215.8281 L10,215.8281 L10,198.6953" fill="#EEEEEE" style="stroke:#000000;stroke-width:1.5;"/><rect fill="none" height="132.3359" style="stroke:#000000;stroke-width:1.5;" width="786.2437" x="10" y="198.6953"/><text fill="#000000" font-family="sans-serif" font-size="13" font-weight="bold" lengthAdjust="spacing" textLength="19.4429" x="25" y="211.7622">alt</text><text fill="#000000" font-family="sans-serif" font-size="11" font-weight="bold" lengthAdjust="spacing" textLength="157.7813" x="89.4429" y="210.9058">[itens v&#225;lidos e total &gt; 0]</text><g class="message" data-participant-1="Pedido" data-participant-2="Pedido"><line style="stroke:#181818;stroke-width:1;" x1="451.8193" x2="493.8193" y1="236.9609" y2="236.9609"/><line style="stroke:#181818;stroke-width:1;" x1="493.8193" x2="493.8193" y1="236.9609" y2="249.9609"/><line style="stroke:#181818;stroke-width:1;" x1="452.8193" x2="493.8193" y1="249.9609" y2="249.9609"/><polygon fill="#181818" points="462.8193,245.9609,452.8193,249.9609,462.8193,253.9609,458.8193,249.9609" style="stroke:#181818;stroke-width:1;"/><text fill="#000000" font-family="sans-serif" font-size="13" lengthAdjust="spacing" textLength="268.2012" x="458.8193" y="231.895">setStatus("AGUARDANDO_PAGAMENTO")</text></g><g class="message" data-participant-1="PedidoService" data-participant-2="EmailNotifier"><polygon fill="#181818" points="722.0205,275.0938,732.0205,279.0938,722.0205,283.0938,726.0205,279.0938" style="stroke:#181818;stroke-width:1;"/><line style="stroke:#181818;stroke-width:1;" x1="266.6143" x2="728.0205" y1="279.0938" y2="279.0938"/><text fill="#000000" font-family="sans-serif" font-size="13" lengthAdjust="spacing" textLength="393.6118" x="273.6143" y="274.0278">notificar(cliente, "Seu pedido est&#225; aguardando pagamento")</text></g><line style="stroke:#000000;stroke-width:1;stroke-dasharray:2,2;" x1="10" x2="796.2437" y1="288.0938" y2="288.0938"/><text fill="#000000" font-family="sans-serif" font-size="11" font-weight="bold" lengthAdjust="spacing" textLength="100.4663" x="15" y="298.3042">[itens inv&#225;lidos]</text><g class="message" data-participant-1="PedidoService" data-participant-2="Cliente"><polygon fill="#181818" points="58.5718,319.0313,48.5718,323.0313,58.5718,327.0313,54.5718,323.0313" style="stroke:#181818;stroke-width:1;"/><line style="stroke:#181818;stroke-width:1;stroke-dasharray:2,2;" x1="52.5718" x2="255.6143" y1="323.0313" y2="323.0313"/><text fill="#000000" font-family="sans-serif" font-size="13" lengthAdjust="spacing" textLength="174.9858" x="64.5718" y="317.9653">excecao("Pedido inv&#225;lido")</text></g><!--SRC=[RP71QiCm38RlVWgHKm8RxDn38LkpqiFIqcpd8Moj25mxs4eOUvi-IrziRfi6GdEp9VtVB_z6BJx0csLoGgh58AovHIUm8yF6DnHwrdETIQaw8jlQ2_ym1QK67ZmlfnXOGFGsYGJ3Epkq_8SQVTvUXpQcKAY5UqpIgRsQOaPk0lQ9OZ0qWjB5F2jVg_tdDYi6nTpeHiZ5l50AhG1VBj2VJwdb8n285xImX1S5CCE89AFL-glShyfwjVtUbUloewglnW0FoqxYIH1tFMeCkRubzGHPGntSSW2ASZu17ZeC1bqgj7Z0Ovhp2Kysqh0rk_lUZwR9zVuB2w1VJPUSi-4Pe_32SqOfG_F1_mC0]--></g></svg>