<svg xmlns="http://www.w3.org/2000/svg" xmlns:xlink="http://www.w3.org/1999/xlink" contentStyleType="text/css" data-diagram-type="DESCRIPTION" height="306px" preserveAspectRatio="none" style="width:1978px;height:306px;background:#FFFFFF;" version="1.1" viewBox="0 0 1978 306" width="1978px" zoomAndPan="magnify"><defs/><g><!--cluster Gerenciamento de Clientes--><g class="cluster" data-entity="Gerenciamento de Clientes" data-source-line="3" data-uid="ent0003" id="cluster_Gerenciamento de Clientes"><path d="M8.5,107.28 L222.877,107.28 A3.75,3.75 0 0 1 225.377,109.78 L232.377,129.5769 L407.5,129.5769 A2.5,2.5 0 0 1 410,132.0769 L410,197.53 A2.5,2.5 0 0 1 407.5,200.03 L8.5,200.03 A2.5,2.5 0 0 1 6,197.53 L6,109.78 A2.5,2.5 0 0 1 8.5,107.28" fill="none" style="stroke:#000000;stroke-width:1.5;"/><line style="stroke:#000000;stroke-width:1.5;" x1="6" x2="232.377" y1="129.5769" y2="129.5769"/><text fill="#000000" font-family="sans-serif" font-size="14" font-weight="bold" lengthAdjust="spacing" textLength="213.377" x="10" y="122.2751">Gerenciamento de Clientes</text></g><!--cluster Gerenciamento de Produtos--><g class="cluster" data-entity="Gerenciamento de Produtos" data-source-line="8" data-uid="ent0008" id="cluster_Gerenciamento de Produtos"><path d="M436.5,106.8 L658.4375,106.8 A3.75,3.75 0 0 1 660.9375,109.3 L667.9375,129.0969 L846.5,129.0969 A2.5,2.5 0 0 1 849,131.5969 L849,198.02 A2.5,2.5 0 0 1 846.5,200.52 L436.5,200.52 A2.5,2.5 0 0 1 434,198.02 L434,109.3 A2.5,2.5 0 0 1 436.5,106.8" fill="none" style="stroke:#000000;stroke-width:1.5;"/><line style="stroke:#000000;stroke-width:1.5;" x1="434" x2="667.9375" y1="129.0969" y2="129.0969"/><text fill="#000000" font-family="sans-serif" font-size="14" font-weight="bold" lengthAdjust="spacing" textLength="220.9375" x="438" y="121.7951">Gerenciamento de Produtos</text></g><!--cluster Fluxo de Venda--><g class="cluster" data-entity="Fluxo de Venda" data-source-line="13" data-uid="ent0013" id="cluster_Fluxo de Venda"><path d="M875.5,113.35 L998.5078,113.35 A3.75,3.75 0 0 1 1001.0078,115.85 L1008.0078,135.6469 L1968.5,135.6469 A2.5,2.5 0 0 1 1971,138.1469 L1971,296.5 A2.5,2.5 0 0 1 1968.5,299 L875.5,299 A2.5,2.5 0 0 1 873,296.5 L873,115.85 A2.5,2.5 0 0 1 875.5,113.35" fill="none" style="stroke:#000000;stroke-width:1.5;"/><line style="stroke:#000000;stroke-width:1.5;" x1="873" x2="1008.0078" y1="135.6469" y2="135.6469"/><text fill="#000000" font-family="sans-serif" font-size="14" font-weight="bold" lengthAdjust="spacing" textLength="122.0078" x="877" y="128.3451">Fluxo de Venda</text></g><!--entity Cadastrar Cliente--><g class="entity" data-entity="Cadastrar Cliente" data-source-line="4" data-uid="ent0004" id="entity_Cadastrar Cliente"><ellipse cx="98.0046" cy="163.1649" fill="#F1F1F1" rx="76.4746" ry="17.6949" style="stroke:#181818;stroke-width:0.5;"/><text fill="#000000" font-family="sans-serif" font-size="14" lengthAdjust="spacing" textLength="122.2881" x="36.8606" y="167.8134">Cadastrar Cliente</text></g><!--entity Listar/Atualizar Cliente--><g class="entity" data-entity="Listar.Atualizar Cliente" data-source-line="5" data-uid="ent0006" id="entity_Listar.Atualizar Cliente"><ellipse cx="301.9962" cy="163.1552" fill="#F1F1F1" rx="92.3762" ry="20.8752" style="stroke:#181818;stroke-width:0.5;"/><text fill="#000000" font-family="sans-serif" font-size="14" lengthAdjust="spacing" textLength="159.0996" x="222.4464" y="167.8037">Listar/Atualizar Cliente</text></g><!--entity Cadastrar Produto--><g class="entity" data-entity="Cadastrar Produto" data-source-line="9" data-uid="ent0009" id="entity_Cadastrar Produto"><ellipse cx="529.0009" cy="163.1602" fill="#F1F1F1" rx="78.7509" ry="18.1502" style="stroke:#181818;stroke-width:0.5;"/><text fill="#000000" font-family="sans-serif" font-size="14" lengthAdjust="spacing" textLength="127.7227" x="465.1395" y="167.8086">Cadastrar Produto</text></g><!--entity Listar/Atualizar Produto--><g class="entity" data-entity="Listar.Atualizar Produto" data-source-line="10" data-uid="ent0011" id="entity_Listar.Atualizar Produto"><ellipse cx="738.003" cy="163.1606" fill="#F1F1F1" rx="94.803" ry="21.3606" style="stroke:#181818;stroke-width:0.5;"/><text fill="#000000" font-family="sans-serif" font-size="14" lengthAdjust="spacing" textLength="164.5342" x="655.736" y="167.809">Listar/Atualizar Produto</text></g><!--entity Criar Pedido--><g class="entity" data-entity="Criar Pedido" data-source-line="14" data-uid="ent0014" id="entity_Criar Pedido"><ellipse cx="1312.0014" cy="163.1603" fill="#F1F1F1" rx="62.0514" ry="14.8103" style="stroke:#181818;stroke-width:0.5;"/><text fill="#000000" font-family="sans-serif" font-size="14" lengthAdjust="spacing" textLength="85.4902" x="1269.2563" y="167.8087">Criar Pedido</text></g><!--entity Adicionar Item--><g class="entity" data-entity="Adicionar Item" data-source-line="15" data-uid="ent0016" id="entity_Adicionar Item"><ellipse cx="956.9987" cy="263.7577" fill="#F1F1F1" rx="68.2887" ry="16.0577" style="stroke:#181818;stroke-width:0.5;"/><text fill="#000000" font-family="sans-serif" font-size="14" lengthAdjust="spacing" textLength="102.0332" x="905.9821" y="268.4062">Adicionar Item</text></g><!--entity Remover Item--><g class="entity" data-entity="Remover Item" data-source-line="16" data-uid="ent0018" id="entity_Remover Item"><ellipse cx="1128.0007" cy="263.7621" fill="#F1F1F1" rx="67.3107" ry="15.8621" style="stroke:#181818;stroke-width:0.5;"/><text fill="#000000" font-family="sans-serif" font-size="14" lengthAdjust="spacing" textLength="99.5176" x="1078.2419" y="268.4106">Remover Item</text></g><!--entity Alterar Quantidade--><g class="entity" data-entity="Alterar Quantidade" data-source-line="17" data-uid="ent0020" id="entity_Alterar Quantidade"><ellipse cx="1311.9996" cy="263.7559" fill="#F1F1F1" rx="81.3296" ry="18.6659" style="stroke:#181818;stroke-width:0.5;"/><text fill="#000000" font-family="sans-serif" font-size="14" lengthAdjust="spacing" textLength="133.7998" x="1245.0997" y="268.4044">Alterar Quantidade</text></g><!--entity Finalizar Pedido--><g class="entity" data-entity="Finalizar Pedido" data-source-line="18" data-uid="ent0022" id="entity_Finalizar Pedido"><ellipse cx="1500.0045" cy="263.7569" fill="#F1F1F1" rx="71.6845" ry="16.7369" style="stroke:#181818;stroke-width:0.5;"/><text fill="#000000" font-family="sans-serif" font-size="14" lengthAdjust="spacing" textLength="110.5918" x="1444.7086" y="268.4053">Finalizar Pedido</text></g><!--entity Realizar Pagamento--><g class="entity" data-entity="Realizar Pagamento" data-source-line="19" data-uid="ent0024" id="entity_Realizar Pagamento"><ellipse cx="1690.9991" cy="263.7618" fill="#F1F1F1" rx="84.2091" ry="19.2418" style="stroke:#181818;stroke-width:0.5;"/><text fill="#000000" font-family="sans-serif" font-size="14" lengthAdjust="spacing" textLength="140.499" x="1620.7496" y="268.4103">Realizar Pagamento</text></g><!--entity Entregar Pedido--><g class="entity" data-entity="Entregar Pedido" data-source-line="20" data-uid="ent0026" id="entity_Entregar Pedido"><ellipse cx="1882.9984" cy="263.7637" fill="#F1F1F1" rx="72.4684" ry="16.8937" style="stroke:#181818;stroke-width:0.5;"/><text fill="#000000" font-family="sans-serif" font-size="14" lengthAdjust="spacing" textLength="112.5332" x="1826.7318" y="268.4121">Entregar Pedido</text></g><!--entity Cliente--><g class="entity" data-entity="Cliente" data-source-line="1" data-uid="ent0002" id="entity_Cliente"><ellipse cx="529.0018" cy="14" fill="#F1F1F1" rx="8" ry="8" style="stroke:#181818;stroke-width:0.5;"/><path d="M529.0018,22 L529.0018,49 M516.0018,30 L542.0018,30 M529.0018,49 L516.0018,64 M529.0018,49 L542.0018,64" fill="none" style="stroke:#181818;stroke-width:0.5;"/><text fill="#000000" font-family="sans-serif" font-size="14" lengthAdjust="spacing" textLength="49.1436" x="504.43" y="78.4951">Cliente</text></g><!--link Cliente to Cadastrar Cliente--><g class="link" data-entity-1="Cliente" data-entity-2="Cadastrar Cliente" data-source-line="4" data-uid="lnk5" id="link_Cliente_Cadastrar Cliente"><path d="M503.93,45.02 C446.63,46.65 302.5,55.14 192,98.8 C163.63,110 135.15,130.87 117.1,145.58" fill="none" id="Cliente-Cadastrar Cliente" style="stroke:#181818;stroke-width:1;"/></g><!--link Cliente to Listar/Atualizar Cliente--><g class="link" data-entity-1="Cliente" data-entity-2="Listar.Atualizar Cliente" data-source-line="5" data-uid="lnk7" id="link_Cliente_Listar.Atualizar Cliente"><path d="M504.27,57.45 C464.06,78.27 384.3,119.55 337.86,143.59" fill="none" id="Cliente-Listar/Atualizar Cliente" style="stroke:#181818;stroke-width:1;"/></g><!--link Cliente to Cadastrar Produto--><g class="link" data-entity-1="Cliente" data-entity-2="Cadastrar Produto" data-source-line="9" data-uid="lnk10" id="link_Cliente_Cadastrar Produto"><path d="M529,82.15 C529,103.11 529,128.23 529,144.66" fill="none" id="Cliente-Cadastrar Produto" style="stroke:#181818;stroke-width:1;"/></g><!--link Cliente to Listar/Atualizar Produto--><g class="link" data-entity-1="Cliente" data-entity-2="Listar.Atualizar Produto" data-source-line="10" data-uid="lnk12" id="link_Cliente_Listar.Atualizar Produto"><path d="M553.8,58.59 C590.99,79.5 661.36,119.06 703.53,142.78" fill="none" id="Cliente-Listar/Atualizar Produto" style="stroke:#181818;stroke-width:1;"/></g><!--link Cliente to Criar Pedido--><g class="link" data-entity-1="Cliente" data-entity-2="Criar Pedido" data-source-line="14" data-uid="lnk15" id="link_Cliente_Criar Pedido"><path d="M553.73,48.36 C663.56,64.84 1108.47,131.61 1260.66,154.45" fill="none" id="Cliente-Criar Pedido" style="stroke:#181818;stroke-width:1;"/></g><!--link Criar Pedido to Adicionar Item--><g class="link" data-entity-1="Criar Pedido" data-entity-2="Adicionar Item" data-source-line="15" data-uid="lnk17" id="link_Criar Pedido_Adicionar Item"><path d="M1272.99,174.99 C1205.99,193.6 1075.3212,229.8946 1005.7112,249.2246" fill="none" id="Criar Pedido-to-Adicionar Item" style="stroke:#181818;stroke-width:1;"/><polygon fill="#181818" points="999.93,250.83,1009.6721,252.2761,1004.7477,249.4922,1007.5316,244.5678,999.93,250.83" style="stroke:#181818;stroke-width:1;"/></g><!--link Criar Pedido to Remover Item--><g class="link" data-entity-1="Criar Pedido" data-entity-2="Remover Item" data-source-line="16" data-uid="lnk19" id="link_Criar Pedido_Remover Item"><path d="M1287.57,177.25 C1252.86,195.85 1194.8585,226.9261 1159.3085,245.9761" fill="none" id="Criar Pedido-to-Remover Item" style="stroke:#181818;stroke-width:1;"/><polygon fill="#181818" points="1154.02,248.81,1163.8421,248.0848,1158.4271,246.4484,1160.0635,241.0334,1154.02,248.81" style="stroke:#181818;stroke-width:1;"/></g><!--link Criar Pedido to Alterar Quantidade--><g class="link" data-entity-1="Criar Pedido" data-entity-2="Alterar Quantidade" data-source-line="17" data-uid="lnk21" id="link_Criar Pedido_Alterar Quantidade"><path d="M1312,178.28 C1312,195.75 1312,219.51 1312,238.64" fill="none" id="Criar Pedido-to-Alterar Quantidade" style="stroke:#181818;stroke-width:1;"/><polygon fill="#181818" points="1312,244.64,1316,235.64,1312,239.64,1308,235.64,1312,244.64" style="stroke:#181818;stroke-width:1;"/></g><!--link Criar Pedido to Finalizar Pedido--><g class="link" data-entity-1="Criar Pedido" data-entity-2="Finalizar Pedido" data-source-line="18" data-uid="lnk23" id="link_Criar Pedido_Finalizar Pedido"><path d="M1336.58,177.05 C1371.41,195.32 1429.6765,225.8731 1466.4165,245.1431" fill="none" id="Criar Pedido-to-Finalizar Pedido" style="stroke:#181818;stroke-width:1;"/><polygon fill="#181818" points="1471.73,247.93,1465.6177,240.2073,1467.3021,245.6076,1461.9018,247.292,1471.73,247.93" style="stroke:#181818;stroke-width:1;"/></g><!--link Criar Pedido to Realizar Pagamento--><g class="link" data-entity-1="Criar Pedido" data-entity-2="Realizar Pagamento" data-source-line="19" data-uid="lnk25" id="link_Criar Pedido_Realizar Pagamento"><path d="M1352.56,174.71 C1421.11,192.54 1554.1133,227.1494 1630.9533,247.1394" fill="none" id="Criar Pedido-to-Realizar Pagamento" style="stroke:#181818;stroke-width:1;"/><polygon fill="#181818" points="1636.76,248.65,1629.057,242.5129,1631.9211,247.3911,1627.0428,250.2552,1636.76,248.65" style="stroke:#181818;stroke-width:1;"/></g><!--link Criar Pedido to Entregar Pedido--><g class="link" data-entity-1="Criar Pedido" data-entity-2="Entregar Pedido" data-source-line="20" data-uid="lnk27" id="link_Criar Pedido_Entregar Pedido"><path d="M1362.65,172.03 C1450.44,185.81 1636.48,215.59 1793,244.52 C1805.07,246.75 1812.1382,248.105 1824.3482,250.565" fill="none" id="Criar Pedido-to-Entregar Pedido" style="stroke:#181818;stroke-width:1;"/><polygon fill="#181818" points="1830.23,251.75,1822.1973,246.0512,1825.3285,250.7625,1820.6173,253.8937,1830.23,251.75" style="stroke:#181818;stroke-width:1;"/></g><!--SRC=[XP312e9048RlFiNIoGxI6mGY6K67yj1zs1baI7TZ7ICAtpsr58lSZlFppNmp0rgiKqd1P8I2u0Bw33cfnPOS6SrGjhbLI0DIBTGZK4EbeaY52I1Kuc0Si_m2zbm9k5KiDHHydtADptXm5cknNkER-MiSkQanBUfRRpgHGVYXSTor4ZBsXi-WHTOgZ94rMzF6Ew5oZigej5VoCt4Xr9rqhC488o3DaIcRuIplRXaD6EIljywH6oEEyid0vWa0]--></g></svg>